<?xml version="1.0" encoding="UTF-8"?>
<svg version="1.1" xmlns="http://www.w3.org/2000/svg" width="1024" height="1024">
<path d="M0 0 C1.31484375 -0.00644531 2.6296875 -0.01289063 3.984375 -0.01953125 C4.66435547 -0.00905762 5.34433594 0.00141602 6.04492188 0.01220703 C8.12034681 0.03900242 10.19036676 0.01243363 12.265625 -0.01953125 C14.23789062 -0.00986328 14.23789062 -0.00986328 16.25 0 C17.44882812 0.00563965 18.64765625 0.0112793 19.8828125 0.01708984 C24.10600875 0.85982102 25.58395161 2.22353318 28.125 5.6640625 C28.69262695 8.6184082 28.69262695 8.6184082 28.61328125 11.83984375 C28.59716797 12.99677734 28.58105469 14.15371094 28.56445312 15.34570312 C28.52255859 16.54388672 28.48066406 17.74207031 28.4375 18.9765625 C28.40366211 20.8028418 28.40366211 20.8028418 28.36914062 22.66601562 C28.3103053 25.66661732 28.2281414 28.66471047 28.125 31.6640625 C28.85614014 31.64311523 29.58728027 31.62216797 30.34057617 31.60058594 C33.66441001 31.51725936 36.98802384 31.46534918 40.3125 31.4140625 C41.46298828 31.38054687 42.61347656 31.34703125 43.79882812 31.3125 C44.91064453 31.29960937 46.02246094 31.28671875 47.16796875 31.2734375 C48.18914795 31.25249023 49.21032715 31.23154297 50.26245117 31.20996094 C54.04252895 31.80961507 55.59289718 32.79162635 58.125 35.6640625 C58.6227256 38.4461272 58.80548717 40.6102627 58.75390625 43.38671875 C58.75631821 44.12860947 58.75873016 44.87050018 58.76121521 45.63487244 C58.76023793 47.19910034 58.74687232 48.76336334 58.72192383 50.32739258 C58.68755529 52.72270894 58.70128014 55.11434669 58.72070312 57.50976562 C58.71380592 59.03126571 58.70413465 60.55275628 58.69140625 62.07421875 C58.69636612 62.78989517 58.70132599 63.50557159 58.70643616 64.24293518 C58.63288067 67.34360906 58.5071515 69.21253649 56.46948242 71.62011719 C53.50126459 72.94179786 51.29470768 73.0047935 48.046875 72.95703125 C46.88671875 72.94736328 45.7265625 72.93769531 44.53125 72.92773438 C42.72140625 72.8900293 42.72140625 72.8900293 40.875 72.8515625 C39.04195313 72.83125977 39.04195313 72.83125977 37.171875 72.81054688 C34.15580502 72.7752023 31.14062513 72.7258581 28.125 72.6640625 C28.14594727 73.42549561 28.16689453 74.18692871 28.18847656 74.97143555 C28.27177795 78.43134282 28.32370584 81.89103888 28.375 85.3515625 C28.40851563 86.54974609 28.44203125 87.74792969 28.4765625 88.98242188 C28.48945313 90.13935547 28.50234375 91.29628906 28.515625 92.48828125 C28.53657227 93.55135498 28.55751953 94.61442871 28.57910156 95.7097168 C27.99172239 99.53115514 27.01692829 101.10004888 24.125 103.6640625 C20.796875 104.29516602 20.796875 104.29516602 16.875 104.29296875 C16.17987305 104.29538071 15.48474609 104.29779266 14.76855469 104.30027771 C13.30267619 104.29930065 11.83676016 104.28594001 10.37109375 104.26098633 C8.13153341 104.22666263 5.89591874 104.24033089 3.65625 104.25976562 C2.22914993 104.25286683 0.80206001 104.24319411 -0.625 104.23046875 C-1.91921875 104.21959229 -3.2134375 104.20871582 -4.546875 104.19750977 C-7.875 103.6640625 -7.875 103.6640625 -10.30371094 102.0222168 C-12.35028741 98.95076214 -12.3349428 97.04103096 -12.265625 93.3671875 C-12.25273437 92.16191406 -12.23984375 90.95664062 -12.2265625 89.71484375 C-12.17628906 87.83345703 -12.17628906 87.83345703 -12.125 85.9140625 C-12.10695313 84.64433594 -12.08890625 83.37460937 -12.0703125 82.06640625 C-12.02317812 78.93196992 -11.95143558 75.7979212 -11.875 72.6640625 C-18.475 72.6640625 -25.075 72.6640625 -31.875 72.6640625 C-31.83093446 79.30314424 -31.76119232 85.94126703 -31.66748047 92.57983398 C-31.6392283 94.83887099 -31.61803501 97.09800764 -31.60400391 99.35717773 C-31.58263348 102.60192026 -31.53601268 105.84545942 -31.484375 109.08984375 C-31.48253204 110.60871941 -31.48253204 110.60871941 -31.48065186 112.15827942 C-31.46093323 113.09902817 -31.4412146 114.03977692 -31.42089844 115.0090332 C-31.41201599 115.83732132 -31.40313354 116.66560944 -31.39398193 117.51899719 C-31.0373625 119.80823129 -31.0373625 119.80823129 -29.11022949 121.42797852 C-26.68828162 122.76731794 -25.30862425 123.05512238 -22.56542969 123.09643555 C-21.72486023 123.11622971 -20.88429077 123.13602386 -20.01824951 123.15641785 C-18.67116913 123.16600273 -18.67116913 123.16600273 -17.296875 123.17578125 C-16.3703009 123.19373245 -15.44372681 123.21168365 -14.48907471 123.23017883 C-11.5344292 123.28428951 -8.57994531 123.31818007 -5.625 123.3515625 C-3.61976917 123.3847349 -1.61455968 123.41922448 0.390625 123.45507812 C5.30196674 123.54001652 10.21326048 123.60682423 15.125 123.6640625 C15.17627681 129.95878567 15.21097196 136.25345376 15.23486328 142.54833984 C15.24483745 144.68377698 15.25842161 146.81920077 15.27587891 148.95458984 C15.36938887 160.69834155 15.42331501 172.10116043 13.125 183.6640625 C12.88330078 184.91993164 12.88330078 184.91993164 12.63671875 186.20117188 C6.49564575 215.59413017 -10.83953109 241.94713444 -35.875 258.6640625 C-60.82804593 274.77497347 -85.84531462 278.98630975 -114.90625 278.96484375 C-117.11389241 278.96873807 -119.32153408 278.97307424 -121.5291748 278.97782898 C-126.12819871 278.98524618 -130.72714575 278.98503025 -135.32617188 278.97973633 C-141.21504863 278.97391041 -147.10361405 278.99096951 -152.99243927 279.014081 C-157.53920321 279.02880699 -162.08589161 279.02969222 -166.63267517 279.02657127 C-168.80477013 279.02708383 -170.97686938 279.03230923 -173.14894104 279.04238319 C-176.17827817 279.05472465 -179.2070008 279.04797236 -182.23632812 279.03637695 C-183.12783569 279.04402069 -184.01934326 279.05166443 -184.93786621 279.05953979 C-191.11423068 279.00730767 -195.26753158 277.83695285 -200.125 273.7890625 C-204.43489935 268.55561329 -204.16682694 263.2319957 -204.1496582 256.75927734 C-204.15476913 255.76494186 -204.15988007 254.77060638 -204.16514587 253.74613953 C-204.17905158 250.45569846 -204.17808239 247.165467 -204.17578125 243.875 C-204.17967155 241.57353641 -204.1840069 239.27207353 -204.18876648 236.97061157 C-204.19623366 232.13695965 -204.19593663 227.30338072 -204.19067383 222.46972656 C-204.1849204 216.32516507 -204.20170724 210.18090907 -204.2250185 204.03639793 C-204.23988565 199.27463072 -204.24060934 194.51293454 -204.23750877 189.75114822 C-204.23801688 187.48931912 -204.24315693 185.22748549 -204.25332069 182.96567917 C-204.39823356 146.1620219 -195.31943719 115.44753094 -168.875 88.6640625 C-150.04207648 69.80086097 -121.80897897 55.78241343 -94.84790039 55.55053711 C-92.47281313 55.55069438 -90.09772194 55.55628101 -87.72265625 55.56640625 C-85.83975136 55.56852867 -85.83975136 55.56852867 -83.91880798 55.57069397 C-80.60294649 55.57532674 -77.28715548 55.58429111 -73.97131348 55.59539795 C-70.57918909 55.60567958 -67.18705739 55.61020597 -63.79492188 55.61523438 C-57.15492864 55.62623678 -50.51496839 55.64295497 -43.875 55.6640625 C-43.96201172 53.69373047 -43.96201172 53.69373047 -44.05078125 51.68359375 C-44.09769048 49.94795227 -44.14318939 48.21227227 -44.1875 46.4765625 C-44.2503418 45.18008789 -44.2503418 45.18008789 -44.31445312 43.85742188 C-44.39886245 39.45125502 -44.31143202 37.29873106 -41.75512695 33.58129883 C-38.33353801 31.30362332 -36.5599207 31.07911177 -32.48046875 31.17578125 C-31.27841797 31.19189453 -30.07636719 31.20800781 -28.83789062 31.22460938 C-27.59201172 31.26650391 -26.34613281 31.30839844 -25.0625 31.3515625 C-23.79728516 31.37412109 -22.53207031 31.39667969 -21.22851562 31.41992188 C-18.10947381 31.47877172 -14.99284098 31.5609488 -11.875 31.6640625 C-11.90118408 30.90262939 -11.92736816 30.14119629 -11.9543457 29.35668945 C-12.05847015 25.89685815 -12.12337729 22.43735665 -12.1875 18.9765625 C-12.2503418 17.17928711 -12.2503418 17.17928711 -12.31445312 15.34570312 C-12.33056641 14.18876953 -12.34667969 13.03183594 -12.36328125 11.83984375 C-12.38946533 10.77677002 -12.41564941 9.71369629 -12.44262695 8.6184082 C-11.10991349 1.68199288 -6.48107256 0.03048892 0 0 Z " fill="#FDFDFD" transform="translate(308,351.4375)"/>
<path d="M0 0 C-0.3374081 5.45124969 -3.63659424 8.69248693 -7 12.6875 C-8.10555538 14.0235917 -9.20978667 15.36078047 -10.3125 16.69921875 C-10.80363281 17.28533936 -11.29476562 17.87145996 -11.80078125 18.4753418 C-13.08581776 20.00376083 -13.08581776 20.00376083 -14 22 C-17.76604823 20.58773191 -21.28587752 18.86820401 -24.83984375 17 C-33.71434094 12.89173367 -44.00490911 12.48431111 -53.4609375 14.875 C-64.35815438 19.13303847 -71.99518326 25.36476443 -77 36 C-81.29500849 45.87526573 -81.62284558 57.46656764 -78.03515625 67.62890625 C-72.94042952 79.29871427 -66.17523566 86.02439833 -54.515625 91.0546875 C-43.97538512 95.01546087 -33.18836018 93.31141583 -23 89 C-19.18004738 86.86612695 -15.56097047 84.54049196 -12 82 C-8.038265 86.34383127 -4.11212415 90.72138136 -0.4375 95.3125 C0.30693359 96.23482422 0.30693359 96.23482422 1.06640625 97.17578125 C2 99 2 99 2.01171875 100.953125 C-1.75399309 108.57178524 -14.43595792 113.46620262 -21.9609375 116.0703125 C-40.15205437 121.63520429 -57.90601578 119.85080317 -74.7109375 110.9453125 C-90.82550443 101.41436912 -101.5019278 87.1538129 -107 69.375 C-109.82458681 55.87975189 -109.52373223 40.70819441 -104 28 C-103.62617188 27.113125 -103.25234375 26.22625 -102.8671875 25.3125 C-95.42891111 9.1551844 -81.81575352 -3.21115927 -65.4375 -9.8125 C-42.54375252 -17.99075997 -19.65162459 -14.19283998 0 0 Z " fill="#253742" transform="translate(254,463)"/>
<path d="M0 0 C6.27 0 12.54 0 19 0 C20.95739883 5.72909684 22.91466226 11.45823956 24.87158203 17.1875 C25.5368672 19.13511828 26.2022309 21.08270973 26.86767578 23.03027344 C27.82605479 25.8352153 28.78414811 28.64025462 29.7421875 31.4453125 C30.03809784 32.31116974 30.33400818 33.17702698 30.6388855 34.06912231 C32.10890138 38.37411222 33.56882074 42.68189262 35 47 C35.51385254 45.45058716 35.51385254 45.45058716 36.03808594 43.86987305 C37.32621888 39.98718563 38.61643021 36.10519137 39.90722656 32.22338867 C40.46246917 30.55267461 41.0171701 28.88178043 41.57128906 27.21069336 C44.59483154 18.09367582 47.65445106 9.00537323 51 0 C56.94 0 62.88 0 69 0 C68.21421497 4.71471017 67.29016459 8.33690726 65.6640625 12.75 C65.42874817 13.393358 65.19343384 14.036716 64.95098877 14.6995697 C64.18076668 16.80163024 63.40309975 18.90084406 62.625 21 C62.08697579 22.46151297 61.5493837 23.92318507 61.01220703 25.38500977 C60.18198305 27.64331702 59.35108585 29.90136315 58.51791382 32.15858459 C56.59943918 37.35706892 54.70720186 42.56450453 52.828125 47.77734375 C52.08310561 49.83686048 51.33746445 51.89615067 50.5914917 53.95532227 C50.11517615 55.27305152 49.64059673 56.59140966 49.16778564 57.91040039 C48.51027673 59.74291882 47.84516957 61.5727057 47.1796875 63.40234375 C46.80569824 64.43866943 46.43170898 65.47499512 46.04638672 66.54272461 C45 69 45 69 43 71 C40.13837978 71.27882453 37.42629639 71.41621662 34.5625 71.4375 C33.78583984 71.47037109 33.00917969 71.50324219 32.20898438 71.53710938 C29.94140625 71.55859375 29.94140625 71.55859375 26 71 C22.54307181 66.65366795 21.03527359 60.97163763 19.19921875 55.79296875 C18.84036087 54.79477615 18.48150299 53.79658356 18.11177063 52.7681427 C16.96535035 49.5763608 15.82615697 46.38205869 14.6875 43.1875 C13.56123935 40.04147051 12.43346161 36.89599 11.30496216 33.75076294 C10.57159842 31.70615706 9.83938796 29.66113714 9.10836792 27.61569214 C6.72135381 20.95114001 4.27410489 14.31260047 1.69108582 7.72123718 C0.63223644 4.96792646 0 2.984278 0 0 Z " fill="#FAFAFA" transform="translate(838,499)"/>
<path d="M0 0 C11.39096656 -0.47590292 24.34505681 1.85191181 33.3359375 9.19140625 C34.64445903 11.97807247 34.38525497 13.05293054 33.33984375 15.98828125 C32.86417969 16.9628125 32.38851562 17.93734375 31.8984375 18.94140625 C31.18880859 20.41867187 31.18880859 20.41867187 30.46484375 21.92578125 C30.09230469 22.6734375 29.71976562 23.42109375 29.3359375 24.19140625 C24.38484757 23.67023889 20.24331936 22.05247769 15.703125 20.12890625 C7.91623993 17.04499137 -1.89098866 16.59488187 -9.6640625 19.87890625 C-18.33372898 24.54225735 -22.04532775 30.032589 -25.6640625 39.19140625 C-28.08870756 50.29219085 -27.47524924 61.83719028 -22.6640625 72.19140625 C-19.13796172 77.63576953 -14.69385255 82.28538036 -8.53515625 84.6015625 C2.40694252 86.84953109 14.23608756 86.13311854 24.3359375 81.19140625 C24.9959375 80.53140625 25.6559375 79.87140625 26.3359375 79.19140625 C28.22265625 79.26171875 28.22265625 79.26171875 30.3359375 80.19140625 C32.29296875 82.37109375 32.29296875 82.37109375 34.1484375 85.06640625 C34.77363281 85.95070313 35.39882813 86.835 36.04296875 87.74609375 C36.46964844 88.55304688 36.89632812 89.36 37.3359375 90.19140625 C36.07007051 93.98900722 34.91628998 94.31200773 31.4609375 96.19140625 C30.57664062 96.68640625 29.69234375 97.18140625 28.78125 97.69140625 C19.93441231 101.54309069 11.56124655 102.7225642 1.9609375 102.62890625 C0.86185059 102.62060791 -0.23723633 102.61230957 -1.36962891 102.60375977 C-15.96443336 102.29983654 -27.33563187 97.87792521 -38.4140625 88.12890625 C-49.47814404 76.37165334 -51.24213857 61.15600603 -50.9765625 45.828125 C-50.44819722 32.46708805 -44.39219146 22.14147525 -34.85546875 13.0390625 C-24.60252282 4.39442181 -13.09186897 0.94061815 0 0 Z " fill="#FBFBFB" transform="translate(408.6640625,468.80859375)"/>
<path d="M0 0 C0.8451416 0.00161133 1.6902832 0.00322266 2.56103516 0.00488281 C10.56428817 0.16129818 16.81539576 1.93923745 23.6875 6.0625 C31.33750594 14.14964913 34.24319742 22.21794728 34.0625 33.25 C34.0615332 34.40628906 34.0615332 34.40628906 34.06054688 35.5859375 C34.0157983 41.2342017 34.0157983 41.2342017 32.875 42.375 C31.40145652 42.46804018 29.92349409 42.49246265 28.44702148 42.48852539 C27.50612167 42.48844986 26.56522186 42.48837433 25.59580994 42.48829651 C24.57290359 42.48313522 23.54999725 42.47797394 22.49609375 42.47265625 C21.45429459 42.4712413 20.41249542 42.46982635 19.33912659 42.46836853 C15.99688906 42.4627508 12.65471743 42.4501953 9.3125 42.4375 C7.05273534 42.43248728 4.79296963 42.42792398 2.53320312 42.42382812 C-3.01955391 42.41277561 -8.57227225 42.39602024 -14.125 42.375 C-13.67683265 43.82787501 -13.21929703 45.27786247 -12.7578125 46.7265625 C-12.50402832 47.53432129 -12.25024414 48.34208008 -11.98876953 49.17431641 C-10.43280919 53.13854097 -7.88424125 54.58779088 -4.1171875 56.2734375 C4.26859158 59.45828042 11.14087455 58.98704428 19.515625 56.03125 C22.15642211 55.29672365 24.14959168 55.03990881 26.875 55.375 C28.4921875 56.73046875 28.4921875 56.73046875 29.75 58.5625 C30.18054688 59.15417969 30.61109375 59.74585938 31.0546875 60.35546875 C32.20298156 63.18245938 32.02847625 64.55689921 30.875 67.375 C28.29296875 68.921875 28.29296875 68.921875 25.0625 70.125 C24.00417969 70.53234375 22.94585938 70.9396875 21.85546875 71.359375 C10.85639879 75.10741981 -4.24546664 75.45715434 -14.90625 70.6328125 C-24.96930429 64.92805285 -31.07749842 57.83179099 -34.4296875 46.6484375 C-36.80432128 35.46898186 -35.40420129 24.74158259 -29.65234375 14.83984375 C-25.52544113 8.99583744 -20.50289797 5.50242586 -14.125 2.375 C-13.38765625 1.99988281 -12.6503125 1.62476563 -11.890625 1.23828125 C-7.92055845 -0.00096269 -4.13790613 -0.00812469 0 0 Z " fill="#FAFAFA" transform="translate(798.125,497.625)"/>
<path d="M0 0 C1.04498657 0.00290039 1.04498657 0.00290039 2.11108398 0.00585938 C9.0762333 0.27910049 15.0996812 2.6621812 20.0625 7.625 C23.96603405 13.60159732 26.18550794 18.56743425 26.19189453 25.74487305 C26.19504669 26.76240158 26.19819885 27.77993011 26.20144653 28.82829285 C26.19841019 30.46596367 26.19841019 30.46596367 26.1953125 32.13671875 C26.19626923 33.26068558 26.19722595 34.3846524 26.19821167 35.54267883 C26.19889173 37.91557878 26.19704958 40.28848059 26.19287109 42.66137695 C26.18750545 46.30879853 26.19282969 49.9560978 26.19921875 53.60351562 C26.19855823 55.90625027 26.19727762 58.20898485 26.1953125 60.51171875 C26.19733673 61.60957199 26.19936096 62.70742523 26.20144653 63.83854675 C26.19671829 65.35065483 26.19671829 65.35065483 26.19189453 66.89331055 C26.19109894 67.78503464 26.19030334 68.67675873 26.18948364 69.59550476 C26.0625 71.625 26.0625 71.625 25.0625 72.625 C23.73206375 72.7233721 22.39656656 72.75578592 21.0625 72.7578125 C20.258125 72.75910156 19.45375 72.76039063 18.625 72.76171875 C17.779375 72.75785156 16.93375 72.75398437 16.0625 72.75 C15.216875 72.75386719 14.37125 72.75773438 13.5 72.76171875 C12.695625 72.76042969 11.89125 72.75914062 11.0625 72.7578125 C10.32 72.75668457 9.5775 72.75555664 8.8125 72.75439453 C7.0625 72.625 7.0625 72.625 6.0625 71.625 C5.95070789 70.21988615 5.90580399 68.80935514 5.88891602 67.39990234 C5.87542618 66.50161713 5.86193634 65.60333191 5.84803772 64.67782593 C5.83759933 63.69875275 5.82716095 62.71967957 5.81640625 61.7109375 C5.78344813 59.64973565 5.75023684 57.58853784 5.71679688 55.52734375 C5.66950337 52.26874777 5.625123 49.01016579 5.58569336 45.75146484 C5.54580891 42.61277347 5.49428112 39.47443322 5.44140625 36.3359375 C5.4329921 35.3690097 5.42457794 34.40208191 5.41590881 33.40585327 C5.32029211 28.13608534 4.99590298 23.5593645 3.0625 18.625 C-1.15799679 16.36752497 -5.23210034 15.99761338 -9.9375 16.625 C-14.31490379 18.77091524 -18.47852323 21.16602323 -21.9375 24.625 C-22.26079319 26.71794498 -22.26079319 26.71794498 -22.24047852 29.15063477 C-22.25712051 30.08823135 -22.27376251 31.02582794 -22.29090881 31.99183655 C-22.29932297 33.00644455 -22.30773712 34.02105255 -22.31640625 35.06640625 C-22.33340073 36.10441879 -22.3503952 37.14243134 -22.36790466 38.2118988 C-22.42117225 41.53703696 -22.4613974 44.86216171 -22.5 48.1875 C-22.54385419 51.51634478 -22.59049817 54.84508996 -22.64280701 58.17381287 C-22.6748863 60.24816959 -22.70173761 62.32261458 -22.72303772 64.39710999 C-22.73652756 65.33155441 -22.7500174 66.26599884 -22.76391602 67.22875977 C-22.77342789 68.0554567 -22.78293976 68.88215363 -22.79273987 69.73390198 C-22.9375 71.625 -22.9375 71.625 -23.9375 72.625 C-25.26793625 72.7233721 -26.60343344 72.75578592 -27.9375 72.7578125 C-28.741875 72.75910156 -29.54625 72.76039063 -30.375 72.76171875 C-31.220625 72.75785156 -32.06625 72.75398437 -32.9375 72.75 C-33.783125 72.75386719 -34.62875 72.75773438 -35.5 72.76171875 C-36.304375 72.76042969 -37.10875 72.75914062 -37.9375 72.7578125 C-38.68 72.75668457 -39.4225 72.75555664 -40.1875 72.75439453 C-41.9375 72.625 -41.9375 72.625 -42.9375 71.625 C-43.03698193 69.51362099 -43.06549638 67.39887714 -43.06689453 65.28515625 C-43.06952301 64.29248245 -43.06952301 64.29248245 -43.07220459 63.27975464 C-43.07662217 61.0823101 -43.07368547 58.88494542 -43.0703125 56.6875 C-43.07098557 55.16674789 -43.07195561 53.64599588 -43.07321167 52.12524414 C-43.07468851 48.93407164 -43.07253452 45.74292708 -43.06787109 42.55175781 C-43.0621738 38.4523547 -43.06545288 34.35301704 -43.07144356 30.25361633 C-43.07504954 27.11217756 -43.07391042 23.97075442 -43.07131577 20.82931519 C-43.0706466 19.31737256 -43.07147457 17.80542854 -43.07379532 16.29348755 C-43.07632245 14.18390113 -43.07248044 12.07442213 -43.06689453 9.96484375 C-43.06609894 8.76206787 -43.06530334 7.55929199 -43.06448364 6.32006836 C-42.9375 3.625 -42.9375 3.625 -41.9375 2.625 C-40.59482587 2.53868126 -39.24775678 2.51793527 -37.90234375 2.52734375 C-37.09345703 2.53056641 -36.28457031 2.53378906 -35.45117188 2.53710938 C-34.60103516 2.54548828 -33.75089844 2.55386719 -32.875 2.5625 C-32.02099609 2.56701172 -31.16699219 2.57152344 -30.28710938 2.57617188 C-28.17054337 2.58799627 -26.05401315 2.60593231 -23.9375 2.625 C-23.6075 4.275 -23.2775 5.925 -22.9375 7.625 C-22.12410156 7.1196875 -21.31070313 6.614375 -20.47265625 6.09375 C-13.57845315 2.18522541 -8.0044746 -0.04941578 0 0 Z " fill="#FBFBFB" transform="translate(577.9375,497.375)"/>
<path d="M0 0 C3.10367497 -0.14515677 6.20648027 -0.23400853 9.3125 -0.3125 C10.19357422 -0.35439453 11.07464844 -0.39628906 11.98242188 -0.43945312 C13.25375977 -0.46362305 13.25375977 -0.46362305 14.55078125 -0.48828125 C15.33106689 -0.51446533 16.11135254 -0.54064941 16.9152832 -0.56762695 C19 0 19 0 20.60009766 2.00292969 C22.34448984 5.73752307 23.62045434 9.511059 24.84765625 13.44140625 C25.1050206 14.24609848 25.36238495 15.05079071 25.62754822 15.87986755 C26.44518784 18.43888391 27.25440894 21.00045392 28.0625 23.5625 C28.87522744 26.12775372 29.68980172 28.69238208 30.50816345 31.25584412 C31.01589615 32.84738337 31.52024572 34.44000694 32.02076721 36.03382874 C33.1220092 39.49566918 34.21863656 42.82329631 36 46 C36.34780518 44.91581787 36.69561035 43.83163574 37.05395508 42.71459961 C38.3532757 38.66743535 39.65706252 34.6217213 40.9621582 30.57641602 C41.52488912 28.83005985 42.08643084 27.08332 42.64672852 25.33618164 C43.45531959 22.81553375 44.26826957 20.29632644 45.08203125 17.77734375 C45.32903275 17.00414291 45.57603424 16.23094208 45.83052063 15.43431091 C49.79629197 3.20370803 49.79629197 3.20370803 53 0 C55.9093558 -0.14517744 58.719946 -0.18630796 61.625 -0.125 C62.42679688 -0.11597656 63.22859375 -0.10695313 64.0546875 -0.09765625 C66.03658523 -0.07406223 68.01832981 -0.03819065 70 0 C71.38218895 4.14656684 69.78711635 6.76209124 68.203125 10.62109375 C67.89825668 11.38537186 67.59338837 12.14964996 67.27928162 12.93708801 C66.27831477 15.44085417 65.26432462 17.939119 64.25 20.4375 C63.56003855 22.15490603 62.87099719 23.87268199 62.18286133 25.59082031 C61.13833199 28.19793982 60.09293872 30.80468325 59.04377747 33.40994263 C56.86654567 38.81816946 54.72466048 44.23849726 52.62109375 49.67578125 C52.36709808 50.3307811 52.11310242 50.98578094 51.85140991 51.66062927 C50.67179197 54.70346949 49.49643809 57.74785139 48.32714844 60.79467773 C47.91368164 61.85759033 47.50021484 62.92050293 47.07421875 64.015625 C46.71932373 64.93633789 46.36442871 65.85705078 45.9987793 66.80566406 C45 69 45 69 43 71 C40.30213195 71.27888734 37.76258279 71.41612731 35.0625 71.4375 C34.33353516 71.47037109 33.60457031 71.50324219 32.85351562 71.53710938 C30.72265625 71.55859375 30.72265625 71.55859375 27 71 C24.68653476 67.80252592 23.23103484 64.37034601 21.79516602 60.70996094 C21.38786758 59.67828796 20.98056915 58.64661499 20.56092834 57.5836792 C20.12961105 56.47840881 19.69829376 55.37313843 19.25390625 54.234375 C18.80152084 53.08640442 18.34913544 51.93843384 17.88304138 50.75567627 C16.4386704 47.08874959 15.00023507 43.41953302 13.5625 39.75 C12.12748699 36.09509202 10.69117771 32.4407045 9.25267029 28.78717041 C8.35888951 26.51635907 7.467225 24.24471325 6.57801819 21.97210693 C4.43465835 16.5189018 2.22644871 11.17057987 -0.3941803 5.92706299 C-1.12995236 3.58663217 -0.78671081 2.28833048 0 0 Z " fill="#F9FAFA" transform="translate(650,499)"/>
<path d="M0 0 C0.89460938 -0.00128906 1.78921875 -0.00257813 2.7109375 -0.00390625 C3.65195312 -0.00003906 4.59296875 0.00382812 5.5625 0.0078125 C6.97402344 0.00201172 6.97402344 0.00201172 8.4140625 -0.00390625 C9.75597656 -0.00197266 9.75597656 -0.00197266 11.125 0 C11.95128906 0.00112793 12.77757812 0.00225586 13.62890625 0.00341797 C15.5625 0.1328125 15.5625 0.1328125 16.5625 1.1328125 C16.66319779 4.29357594 16.69864023 7.43253277 16.69189453 10.59375 C16.69364685 11.58715393 16.69539917 12.58055786 16.69720459 13.60406494 C16.70162511 16.90533162 16.69868441 20.20654523 16.6953125 23.5078125 C16.69598548 25.79085297 16.69695546 28.07389337 16.69821167 30.35693359 C16.69968891 35.14876994 16.69753323 39.94058769 16.69287109 44.73242188 C16.6871738 50.88997885 16.69045266 57.04749224 16.69644356 63.20504761 C16.70004845 67.92147147 16.69891091 72.63788491 16.69631577 77.35430908 C16.6956463 79.6254273 16.6964756 81.89654644 16.69879532 84.16766357 C16.70132067 87.33575972 16.6974829 90.50378422 16.69189453 93.671875 C16.69391876 94.62048401 16.69594299 95.56909302 16.69802856 96.54644775 C16.67676224 103.01855026 16.67676224 103.01855026 15.5625 104.1328125 C12.4242655 104.38247817 9.27200387 104.31803041 6.125 104.3203125 C4.79758789 104.33868164 4.79758789 104.33868164 3.44335938 104.35742188 C2.59708984 104.35935547 1.75082031 104.36128906 0.87890625 104.36328125 C0.09974854 104.36739014 -0.67940918 104.37149902 -1.48217773 104.37573242 C-3.4375 104.1328125 -3.4375 104.1328125 -5.4375 102.1328125 C-5.68638897 100.31215572 -5.68638897 100.31215572 -5.68473816 98.06468201 C-5.68893265 97.21354828 -5.69312714 96.36241455 -5.69744873 95.48548889 C-5.69182922 94.5498259 -5.68620972 93.6141629 -5.68041992 92.65014648 C-5.68231827 91.6663501 -5.68421661 90.68255371 -5.68617249 89.66894531 C-5.68988798 86.40551881 -5.67916574 83.14231309 -5.66796875 79.87890625 C-5.66677737 77.61971564 -5.6663237 75.36052453 -5.6665802 73.10133362 C-5.66501404 68.36252754 -5.65671369 63.62379687 -5.64331055 58.88500977 C-5.62631084 52.79585713 -5.6224964 46.70678738 -5.62325573 40.61761379 C-5.62298446 35.95179954 -5.61751028 31.28600358 -5.61025429 26.62019539 C-5.60706136 24.37419842 -5.60509877 22.12819936 -5.60436058 19.88220024 C-5.60220415 16.75012517 -5.59347537 13.61813992 -5.58276367 10.48608398 C-5.58321686 9.54839676 -5.58367004 8.61070953 -5.58413696 7.64460754 C-5.54574098 0.00757024 -5.54574098 0.00757024 0 0 Z " fill="#FAFAFA" transform="translate(463.4375,465.8671875)"/>
<path d="M0 0 C0.74886475 0.00523682 1.49772949 0.01047363 2.26928711 0.01586914 C3.07817383 0.0190918 3.88706055 0.02231445 4.72045898 0.02563477 C5.5705957 0.03401367 6.42073242 0.04239258 7.29663086 0.05102539 C8.15063477 0.05553711 9.00463867 0.06004883 9.88452148 0.06469727 C12.00108749 0.07652166 14.11761771 0.0944577 16.23413086 0.11352539 C17.64544058 2.93614483 17.36919546 5.3025555 17.37939453 8.45922852 C17.38275314 9.10979721 17.38611176 9.76036591 17.38957214 10.4306488 C17.39908662 12.58537698 17.40102536 14.74002751 17.40209961 16.89477539 C17.40531137 18.38928256 17.40867538 19.8837894 17.41218567 21.3782959 C17.41817784 24.51221445 17.42002543 27.64610542 17.41943359 30.7800293 C17.41933186 34.80200591 17.43299548 38.82380644 17.4502058 42.84574127 C17.46130542 45.93232033 17.46335345 49.01885651 17.46282387 52.10545349 C17.46400663 53.58866484 17.46844491 55.0718772 17.47615623 56.55506897 C17.48591717 58.62611361 17.48309406 60.69677185 17.47705078 62.76782227 C17.4784758 63.94759644 17.47990082 65.12737061 17.48136902 66.34289551 C17.23413086 69.11352539 17.23413086 69.11352539 15.23413086 71.11352539 C12.34280909 71.28531591 9.55971021 71.34582009 6.67163086 71.30102539 C5.87821289 71.30038086 5.08479492 71.29973633 4.26733398 71.29907227 C-1.62561392 71.25378061 -1.62561392 71.25378061 -2.76586914 70.11352539 C-2.86539207 67.97152216 -2.89386593 65.82619834 -2.89526367 63.68188477 C-2.89701599 63.01034866 -2.89876831 62.33881256 -2.90057373 61.64692688 C-2.90499144 59.41701711 -2.90205456 57.18718603 -2.89868164 54.95727539 C-2.8993547 53.41410303 -2.90032475 51.87093078 -2.90158081 50.32775879 C-2.90305767 47.08950799 -2.90090361 43.85128472 -2.89624023 40.61303711 C-2.89054294 36.45310016 -2.89382201 32.29322773 -2.8998127 28.13329315 C-2.90341863 24.94553131 -2.90227958 21.75778488 -2.89968491 18.57002258 C-2.89901573 17.03575127 -2.89984375 15.50147857 -2.90216446 13.96720886 C-2.90469152 11.82648998 -2.90084968 9.68587697 -2.89526367 7.54516602 C-2.89446808 6.32462524 -2.89367249 5.10408447 -2.89285278 3.84655762 C-2.72226336 0.17501071 -2.72226336 0.17501071 0 0 Z " fill="#F8F8F8" transform="translate(732.765869140625,498.886474609375)"/>
<path d="M0 0 C0.78955078 -0.01224609 1.57910156 -0.02449219 2.39257812 -0.03710938 C4.45057435 -0.04237279 6.50812009 0.06543715 8.5625 0.1875 C11.34341885 2.96841885 10.81603599 4.63835225 10.82128906 8.53320312 C10.8247937 9.18377182 10.82829834 9.83434052 10.83190918 10.50462341 C10.84072629 12.65944017 10.83487763 14.81392978 10.828125 16.96875 C10.82947166 18.46325748 10.8314122 19.95776453 10.83392334 21.45227051 C10.83687457 24.58622402 10.83257707 27.72006362 10.82324219 30.85400391 C10.81184757 34.87600013 10.81840706 38.89772945 10.83038712 42.91971588 C10.8376058 46.00630717 10.83531777 49.09283493 10.83013153 52.1794281 C10.82879505 53.66263358 10.83044269 55.14584478 10.83509064 56.62904358 C10.84015612 58.70011731 10.83244584 60.77075566 10.82128906 62.84179688 C10.81890228 64.61145813 10.81890228 64.61145813 10.81646729 66.41687012 C10.5625 69.1875 10.5625 69.1875 8.5625 71.1875 C5.67117823 71.35929052 2.88807935 71.4197947 0 71.375 C-0.79341797 71.37435547 -1.58683594 71.37371094 -2.40429688 71.37304688 C-8.29724478 71.32775522 -8.29724478 71.32775522 -9.4375 70.1875 C-9.53702293 68.04549676 -9.56549679 65.90017295 -9.56689453 63.75585938 C-9.56864685 63.08432327 -9.57039917 62.41278717 -9.57220459 61.72090149 C-9.5766223 59.49099172 -9.57368542 57.26116064 -9.5703125 55.03125 C-9.57098556 53.48807764 -9.57195561 51.94490539 -9.57321167 50.4017334 C-9.57468853 47.1634826 -9.57253447 43.92525933 -9.56787109 40.68701172 C-9.5621738 36.52707477 -9.56545287 32.36720234 -9.57144356 28.20726776 C-9.57504949 25.01950592 -9.57391044 21.83175949 -9.57131577 18.64399719 C-9.57064658 17.10972588 -9.57147461 15.57545318 -9.57379532 14.04118347 C-9.57632238 11.90046459 -9.57248054 9.75985158 -9.56689453 7.61914062 C-9.56609894 6.39859985 -9.56530334 5.17805908 -9.56448364 3.92053223 C-9.30164503 -1.73646717 -4.51979683 0.00367165 0 0 Z " fill="#F7F7F8" transform="translate(629.4375,498.8125)"/>
<path d="M0 0 C0.79792969 0.00386719 1.59585937 0.00773437 2.41796875 0.01171875 C3.21589844 0.00785156 4.01382812 0.00398438 4.8359375 0 C10.79136108 0.01011108 10.79136108 0.01011108 11.91796875 1.13671875 C12.01749168 3.27872199 12.04596554 5.4240458 12.04736328 7.56835938 C12.0491156 8.23989548 12.05086792 8.91143158 12.05267334 9.60331726 C12.05709105 11.83322703 12.05415417 14.06305811 12.05078125 16.29296875 C12.05145431 17.83614111 12.05242436 19.37931336 12.05368042 20.92248535 C12.05515728 24.16073615 12.05300322 27.39895942 12.04833984 30.63720703 C12.04264255 34.79714398 12.04592162 38.95701641 12.05191231 43.11695099 C12.05551824 46.30471283 12.05437919 49.49245926 12.05178452 52.68022156 C12.05111533 54.21449287 12.05194336 55.74876557 12.05426407 57.28303528 C12.05679113 59.42375416 12.05294929 61.56436717 12.04736328 63.70507812 C12.04656769 64.9256189 12.04577209 66.14615967 12.04495239 67.40368652 C11.91796875 70.13671875 11.91796875 70.13671875 10.91796875 71.13671875 C8.07461827 71.2365885 5.26099712 71.27549756 2.41796875 71.26171875 C1.62003906 71.26558594 0.82210938 71.26945313 0 71.2734375 C-5.95542358 71.26332642 -5.95542358 71.26332642 -7.08203125 70.13671875 C-7.18155418 67.99471551 -7.21002804 65.8493917 -7.21142578 63.70507812 C-7.2131781 63.03354202 -7.21493042 62.36200592 -7.21673584 61.67012024 C-7.22115355 59.44021047 -7.21821667 57.21037939 -7.21484375 54.98046875 C-7.21551681 53.43729639 -7.21648686 51.89412414 -7.21774292 50.35095215 C-7.21921978 47.11270135 -7.21706572 43.87447808 -7.21240234 40.63623047 C-7.20670505 36.47629352 -7.20998412 32.31642109 -7.21597481 28.15648651 C-7.21958074 24.96872467 -7.21844169 21.78097824 -7.21584702 18.59321594 C-7.21517783 17.05894463 -7.21600586 15.52467193 -7.21832657 13.99040222 C-7.22085363 11.84968334 -7.21701179 9.70907033 -7.21142578 7.56835938 C-7.21063019 6.3478186 -7.20983459 5.12727783 -7.20901489 3.86975098 C-6.97486729 -1.1697402 -4.44642522 0.00754911 0 0 Z " fill="#FCFCFC" transform="translate(505.08203125,498.86328125)"/>
<path d="M0 0 C3.86261056 1.96641992 6.99327523 4.09803517 9 8 C9 10.31 9 12.62 9 15 C-0.9 15 -10.8 15 -21 15 C-18.74788274 5.99153094 -18.74788274 5.99153094 -15.5 3.5625 C-14.8915625 3.08941406 -14.283125 2.61632812 -13.65625 2.12890625 C-9.38368749 -0.78328848 -5.02907076 -0.56393574 0 0 Z " fill="#253743" transform="translate(804,511)"/>
<path d="M0 0 C3.86134614 0.04843983 6.16579789 0.80078068 9.25 3.25 C11.70665197 6.93497796 11.95086491 9.96971786 11.25 14.25 C9.45636089 17.0600346 8.23119065 18.75940468 5.25 20.25 C0.25495675 20.86885492 -3.5300725 21.00635505 -7.875 18.3125 C-10.37999852 14.22100242 -10.84435557 10.93282383 -9.75 6.25 C-7.3125 3.25 -7.3125 3.25 -4.75 1.25 C-3.75 0.25 -3.75 0.25 0 0 Z " fill="#F9F9FA" transform="translate(738.75,466.75)"/>
<path d="M0 0 C3.58552881 1.63687185 4.79315055 2.68972583 7 6 C7.67226891 12.94677871 7.67226891 12.94677871 5.125 16.9375 C1.6160425 20.34325286 -1.01818439 20.33097275 -5.73828125 20.29296875 C-9.0542278 19.86344199 -10.74987627 18.39075646 -13 16 C-14.60086627 12.79826746 -14.49917089 9.47422941 -14 6 C-10.25494165 0.13274192 -6.77768402 -0.74151246 0 0 Z " fill="#FAFAFA" transform="translate(633,467)"/>
<path d="M0 0 C3.5386994 1.65139305 4.81070153 2.71605229 7 6 C7.60203459 9.09121605 7.60109238 11.90789414 7 15 C4.35382549 18.32468079 2.8938525 19.6278746 -1.2265625 20.4375 C-5.31580938 20.65632258 -7.4744748 20.32845325 -11 18.125 C-14.05568756 14.87833197 -14.3919175 12.51365653 -14.359375 8.0390625 C-13.7567698 4.61993302 -11.63213933 3.06810948 -9 1 C-5.93570224 -0.53214888 -3.3834358 -0.22938548 0 0 Z " fill="#FAFAFA" transform="translate(511,467)"/>
<path d="M0 0 C0.66 0.66 1.32 1.32 2 2 C3.93681136 2.27654388 3.93681136 2.27654388 6.1328125 2.1953125 C6.85871582 2.19031738 7.58461914 2.18532227 8.33251953 2.18017578 C9.25403809 2.16196777 10.17555664 2.14375977 11.125 2.125 C15.518125 2.063125 15.518125 2.063125 20 2 C20 10.25 20 18.5 20 27 C19.67 27 19.34 27 19 27 C19 19.08 19 11.16 19 3 C13.72 3 8.44 3 3 3 C3.11818531 8.78423996 3.2424294 14.56830583 3.37231445 20.35229492 C3.41565241 22.32035779 3.45732832 24.28845798 3.49731445 26.2565918 C3.55504445 29.0839361 3.61873116 31.91109271 3.68359375 34.73828125 C3.70030624 35.61962234 3.71701874 36.50096344 3.73423767 37.40901184 C3.75418289 38.22963608 3.77412811 39.05026031 3.79467773 39.89575195 C3.81799416 40.97830009 3.81799416 40.97830009 3.84178162 42.0827179 C3.94195257 44.22108144 3.94195257 44.22108144 5 47 C18.86 47.33 32.72 47.66 47 48 C47.33 48.66 47.66 49.32 48 50 C42.11015713 50.09900816 36.22080055 50.17153481 30.33032227 50.21972656 C28.32730672 50.23981991 26.32434968 50.26709965 24.3215332 50.30175781 C21.43946892 50.35037611 18.55818134 50.37299152 15.67578125 50.390625 C14.33644279 50.42159271 14.33644279 50.42159271 12.970047 50.45318604 C8.8207301 50.45467755 6.57946188 50.34988133 2.95776367 48.16308594 C0.19332442 45.10872357 -0.12515258 42.67703061 -0.11352539 38.7121582 C-0.11344986 37.85149246 -0.11337433 36.99082672 -0.11329651 36.1040802 C-0.10813522 35.17899155 -0.10297394 34.25390289 -0.09765625 33.30078125 C-0.0962413 32.35059616 -0.09482635 31.40041107 -0.09336853 30.4214325 C-0.08776875 27.38508971 -0.07521632 24.34882052 -0.0625 21.3125 C-0.05748497 19.25455836 -0.05292207 17.19661556 -0.04882812 15.13867188 C-0.0377994 10.09241954 -0.02053493 5.04622225 0 0 Z " fill="#2E3D49" transform="translate(268,423)"/>
<path d="M0 0 C0.33 0 0.66 0 1 0 C1 21.45 1 42.9 1 65 C0.67 65 0.34 65 0 65 C-0.33 80.84 -0.66 96.68 -1 113 C-1.33 113 -1.66 113 -2 113 C-2 78.35 -2 43.7 -2 8 C-1.67 8 -1.34 8 -1 8 C-0.67 5.36 -0.34 2.72 0 0 Z " fill="#31424E" transform="translate(97,503)"/>
<path d="M0 0 C0.33 0 0.66 0 1 0 C0.98839844 1.13179688 0.97679687 2.26359375 0.96484375 3.4296875 C0.95546546 4.91145669 0.9463653 6.39322765 0.9375 7.875 C0.92912109 8.62136719 0.92074219 9.36773437 0.91210938 10.13671875 C0.79311916 14.19845578 0.79311916 14.19845578 2 18 C-0.95857409 18.05379226 -3.91617721 18.09357093 -6.875 18.125 C-8.13763672 18.15013672 -8.13763672 18.15013672 -9.42578125 18.17578125 C-10.63427734 18.18544922 -10.63427734 18.18544922 -11.8671875 18.1953125 C-12.61081543 18.20578613 -13.35444336 18.21625977 -14.12060547 18.22705078 C-16 18 -16 18 -18 16 C-14.81175432 14.40587716 -11.37103338 14.89825265 -7.875 14.9375 C-7.12089844 14.94201172 -6.36679688 14.94652344 -5.58984375 14.95117188 C-3.72652873 14.96296501 -1.86325445 14.98090058 0 15 C0 10.05 0 5.1 0 0 Z " fill="#33424E" transform="translate(255,387)"/>
<path d="M0 0 C0.99 0.33 1.98 0.66 3 1 C2.07038578 2.15224028 1.1309875 3.29659176 0.1875 4.4375 C-0.59560547 5.39462891 -0.59560547 5.39462891 -1.39453125 6.37109375 C-3 8 -3 8 -6 9 C-7.22520264 12.00847418 -7.22520264 12.00847418 -8 15 C-8.33 14.01 -8.66 13.02 -9 12 C-7.890625 9.84375 -7.890625 9.84375 -6.25 7.5 C-5.45335937 6.33984375 -5.45335937 6.33984375 -4.640625 5.15625 C-3.20031148 3.26326652 -1.73002206 1.62580387 0 0 Z " fill="#1F2B35" transform="translate(393,491)"/>
<path d="M0 0 C0.99 0 1.98 0 3 0 C2.55037804 1.96035175 2.09001752 3.91824309 1.625 5.875 C1.36976563 6.96554687 1.11453125 8.05609375 0.8515625 9.1796875 C0 12 0 12 -2 14 C-2.21192221 8.80790596 -1.5912689 4.873261 0 0 Z " fill="#1F2E3B" transform="translate(871,523)"/>
<path d="M0 0 C3.34944548 5.02416822 3.09834146 9.09951257 3 15 C2.01 14.67 1.02 14.34 0 14 C0 9.38 0 4.76 0 0 Z " fill="#33414D" transform="translate(381,514)"/>
<path d="M0 0 C0.99 0.33 1.98 0.66 3 1 C2.401875 1.226875 1.80375 1.45375 1.1875 1.6875 C-1.56085774 3.33651464 -2.39211876 5.27359268 -4 8 C-4.99 8.33 -5.98 8.66 -7 9 C-6.75881648 5.74402242 -5.47775788 4.2723696 -3.125 2.1875 C-2.09375 1.465625 -1.0625 0.74375 0 0 Z " fill="#1A2531" transform="translate(792,512)"/>
<path d="M0 0 C0.66 0.99 1.32 1.98 2 3 C1.34 3 0.68 3 0 3 C-0.33 5.31 -0.66 7.62 -1 10 C-1.66 10 -2.32 10 -3 10 C-3.33 10.66 -3.66 11.32 -4 12 C-3.45660208 7.43545749 -2.20536179 4.0271824 0 0 Z " fill="#1F2B37" transform="translate(719,506)"/>
<path d="M0 0 C0.9075 0.309375 1.815 0.61875 2.75 0.9375 C5.8128897 2.01595279 5.8128897 2.01595279 8.3125 2.4375 C8.869375 2.623125 9.42625 2.80875 10 3 C10.33 3.99 10.66 4.98 11 6 C6.48986609 5.46939601 3.61621781 3.69113883 0 1 C0 0.67 0 0.34 0 0 Z " fill="#222D39" transform="translate(175,570)"/>
<path d="M0 0 C0.33 0 0.66 0 1 0 C1.0270043 1.45823212 1.04639787 2.91660675 1.0625 4.375 C1.07410156 5.18710937 1.08570313 5.99921875 1.09765625 6.8359375 C1 9 1 9 0 11 C-3.0625 11.625 -3.0625 11.625 -6 12 C-5.195625 11.319375 -4.39125 10.63875 -3.5625 9.9375 C-0.57711289 6.51522698 -0.26218749 4.4571874 0 0 Z " fill="#343C48" transform="translate(518,475)"/>
<path d="M0 0 C2.475 0.495 2.475 0.495 5 1 C5 1.66 5 2.32 5 3 C6.98 3.66 8.96 4.32 11 5 C11 5.66 11 6.32 11 7 C6.89188572 5.55007731 3.53144334 3.54592427 0 1 C0 0.67 0 0.34 0 0 Z " fill="#1E2732" transform="translate(229,478)"/>
</svg>
