<?xml version="1.0" encoding="UTF-8"?>
<svg version="1.1" xmlns="http://www.w3.org/2000/svg" width="1024" height="1024">
<!-- Background path removed for transparency -->
<path d="M0 0 C1.31484375 -0.00644531 2.6296875 -0.01289063 3.984375 -0.01953125 C4.66435547 -0.00905762 5.34433594 0.00141602 6.04492188 0.01220703 C8.12034681 0.03900242 10.19036676 0.01243363 12.265625 -0.01953125 C14.23789062 -0.00986328 14.23789062 -0.00986328 16.25 0 C17.44882812 0.00563965 18.64765625 0.0112793 19.8828125 0.01708984 C24.10600875 0.85982102 25.58395161 2.22353318 28.125 5.6640625 C28.69262695 8.6184082 28.69262695 8.6184082 28.61328125 11.83984375 C28.59716797 12.99677734 28.58105469 14.15371094 28.56445312 15.34570312 C28.52255859 16.54388672 28.48066406 17.74207031 28.4375 18.9765625 C28.40366211 20.8028418 28.40366211 20.8028418 28.36914062 22.66601562 C28.3103053 25.66661732 28.2281414 28.66471047 28.125 31.6640625 C28.85614014 31.64311523 29.58728027 31.62216797 30.34057617 31.60058594 C33.66441001 31.51725936 36.98802384 31.46534918 40.3125 31.4140625 C41.46298828 31.38054687 42.61347656 31.34703125 43.79882812 31.3125 C44.91064453 31.29960937 46.02246094 31.28671875 47.16796875 31.2734375 C48.18914795 31.25249023 49.21032715 31.23154297 50.26245117 31.20996094 C54.04252895 31.80961507 55.59289718 32.79162635 58.125 35.6640625 C58.6227256 38.4461272 58.80548717 40.6102627 58.75390625 43.38671875 C58.75631821 44.12860947 58.75873016 44.87050018 58.76121521 45.63487244 C58.76023793 47.19910034 58.74687232 48.76336334 58.72192383 50.32739258 C58.68755529 52.72270894 58.70128014 55.11434669 58.72070312 57.50976562 C58.71380592 59.03126571 58.70413465 60.55275628 58.69140625 62.07421875 C58.69636612 62.78989517 58.70132599 63.50557159 58.70643616 64.24293518 C58.63288067 67.34360906 58.5071515 69.21253649 56.46948242 71.62011719 C53.50126459 72.94179786 51.29470768 73.0047935 48.046875 72.95703125 C46.88671875 72.94736328 45.7265625 72.93769531 44.53125 72.92773438 C42.72140625 72.8900293 42.72140625 72.8900293 40.875 72.8515625 C39.04195313 72.83125977 39.04195313 72.83125977 37.171875 72.81054688 C34.15580502 72.7752023 31.14062513 72.7258581 28.125 72.6640625 C28.14594727 73.42549561 28.16689453 74.18692871 28.18847656 74.97143555 C28.27177795 78.43134282 28.32370584 81.89103888 28.375 85.3515625 C28.40851563 86.54974609 28.44203125 87.74792969 28.4765625 88.98242188 C28.48945313 90.13935547 28.50234375 91.29628906 28.515625 92.48828125 C28.53657227 93.55135498 28.55751953 94.61442871 28.57910156 95.7097168 C27.99172239 99.53115514 27.01692829 101.10004888 24.125 103.6640625 C20.796875 104.29516602 20.796875 104.29516602 16.875 104.29296875 C16.17987305 104.29538071 15.48474609 104.29779266 14.76855469 104.30027771 C13.30267619 104.29930065 11.83676016 104.28594001 10.37109375 104.26098633 C8.13153341 104.22666263 5.89591874 104.24033089 3.65625 104.25976562 C2.22914993 104.25286683 0.80206001 104.24319411 -0.625 104.23046875 C-1.91921875 104.21959229 -3.2134375 104.20871582 -4.546875 104.19750977 C-7.875 103.6640625 -7.875 103.6640625 -10.30371094 102.0222168 C-12.35028741 98.95076214 -12.3349428 97.04103096 -12.265625 93.3671875 C-12.25273437 92.16191406 -12.23984375 90.95664062 -12.2265625 89.71484375 C-12.17628906 87.83345703 -12.17628906 87.83345703 -12.125 85.9140625 C-12.10695313 84.64433594 -12.08890625 83.37460937 -12.0703125 82.06640625 C-12.02317812 78.93196992 -11.95143558 75.7979212 -11.875 72.6640625 C-18.475 72.6640625 -25.075 72.6640625 -31.875 72.6640625 C-31.83093446 79.30314424 -31.76119232 85.94126703 -31.66748047 92.57983398 C-31.6392283 94.83887099 -31.61803501 97.09800764 -31.60400391 99.35717773 C-31.58263348 102.60192026 -31.53601268 105.84545942 -31.484375 109.08984375 C-31.48253204 110.60871941 -31.48253204 110.60871941 -31.48065186 112.15827942 C-31.46093323 113.09902817 -31.4412146 114.03977692 -31.42089844 115.0090332 C-31.41201599 115.83732132 -31.40313354 116.66560944 -31.39398193 117.51899719 C-31.0373625 119.80823129 -31.0373625 119.80823129 -29.11022949 121.42797852 C-26.68828162 122.76731794 -25.30862425 123.05512238 -22.56542969 123.09643555 C-21.72486023 123.11622971 -20.88429077 123.13602386 -20.01824951 123.15641785 C-18.67116913 123.16600273 -18.67116913 123.16600273 -17.296875 123.17578125 C-16.3703009 123.19373245 -15.44372681 123.21168365 -14.48907471 123.23017883 C-11.5344292 123.28428951 -8.57994531 123.31818007 -5.625 123.3515625 C-3.61976917 123.3847349 -1.61455968 123.41922448 0.390625 123.45507812 C5.30196674 123.54001652 10.21326048 123.60682423 15.125 123.6640625 C15.17627681 129.95878567 15.21097196 136.25345376 15.23486328 142.54833984 C15.24483745 144.68377698 15.25842161 146.81920077 15.27587891 148.95458984 C15.36938887 160.69834155 15.42331501 172.10116043 13.125 183.6640625 C12.88330078 184.91993164 12.88330078 184.91993164 12.63671875 186.20117188 C6.49564575 215.59413017 -10.83953109 241.94713444 -35.875 258.6640625 C-60.82804593 274.77497347 -85.84531462 278.98630975 -114.90625 278.96484375 C-117.11389241 278.96873807 -119.32153408 278.97307424 -121.5291748 278.97782898 C-126.12819871 278.98524618 -130.72714575 278.98503025 -135.32617188 278.97973633 C-141.21504863 278.97391041 -147.10361405 278.99096951 -152.99243927 279.014081 C-157.53920321 279.02880699 -162.08589161 279.02969222 -166.63267517 279.02657127 C-168.80477013 279.02708383 -170.97686938 279.03230923 -173.14894104 279.04238319 C-176.17827817 279.05472465 -179.2070008 279.04797236 -182.23632812 279.03637695 C-183.12783569 279.04402069 -184.01934326 279.05166443 -184.93786621 279.05953979 C-191.11423068 279.00730767 -195.26753158 277.83695285 -200.125 273.7890625 C-204.43489935 268.55561329 -204.16682694 263.2319957 -204.1496582 256.75927734 C-204.15476913 255.76494186 -204.15988007 254.77060638 -204.16514587 253.74613953 C-204.17905158 250.45569846 -204.17808239 247.165467 -204.17578125 243.875 C-204.17967155 241.57353641 -204.1840069 239.27207353 -204.18876648 236.97061157 C-204.19623366 232.13695965 -204.19593663 227.30338072 -204.19067383 222.46972656 C-204.1849204 216.32516507 -204.20170724 210.18090907 -204.2250185 204.03639793 C-204.23988565 199.27463072 -204.24060934 194.51293454 -204.23750877 189.75114822 C-204.23801688 187.48931912 -204.24315693 185.22748549 -204.25332069 182.96567917 C-204.39823356 146.1620219 -195.31943719 115.44753094 -168.875 88.6640625 C-150.04207648 69.80086097 -121.80897897 55.78241343 -94.84790039 55.55053711 C-92.47281313 55.55069438 -90.09772194 55.55628101 -87.72265625 55.56640625 C-85.83975136 55.56852867 -85.83975136 55.56852867 -83.91880798 55.57069397 C-80.60294649 55.57532674 -77.28715548 55.58429111 -73.97131348 55.59539795 C-70.57918909 55.60567958 -67.18705739 55.61020597 -63.79492188 55.61523438 C-57.15492864 55.62623678 -50.51496839 55.64295497 -43.875 55.6640625 C-43.96201172 53.69373047 -43.96201172 53.69373047 -44.05078125 51.68359375 C-44.09769048 49.94795227 -44.14318939 48.21227227 -44.1875 46.4765625 C-44.2503418 45.18008789 -44.2503418 45.18008789 -44.31445312 43.85742188 C-44.39886245 39.45125502 -44.31143202 37.29873106 -41.75512695 33.58129883 C-38.33353801 31.30362332 -36.5599207 31.07911177 -32.48046875 31.17578125 C-31.27841797 31.19189453 -30.07636719 31.20800781 -28.83789062 31.22460938 C-27.59201172 31.26650391 -26.34613281 31.30839844 -25.0625 31.3515625 C-23.79728516 31.37412109 -22.53207031 31.39667969 -21.22851562 31.41992188 C-18.10947381 31.47877172 -14.99284098 31.5609488 -11.875 31.6640625 C-11.90118408 30.90262939 -11.92736816 30.14119629 -11.9543457 29.35668945 C-12.05847015 25.89685815 -12.12337729 22.43735665 -12.1875 18.9765625 C-12.2503418 17.17928711 -12.2503418 17.17928711 -12.31445312 15.34570312 C-12.33056641 14.18876953 -12.34667969 13.03183594 -12.36328125 11.83984375 C-12.38946533 10.77677002 -12.41564941 9.71369629 -12.44262695 8.6184082 C-11.10991349 1.68199288 -6.48107256 0.03048892 0 0 Z " fill="#1EB268" transform="translate(299.875,350.3359375)"/>
<path d="M0 0 C1.546875 1.74609375 1.546875 1.74609375 1.546875 5.74609375 C0.16992188 7.66894531 0.16992188 7.66894531 -1.734375 9.63671875 C-2.41113281 10.34570312 -3.08789062 11.0546875 -3.78515625 11.78515625 C-4.50058594 12.51476562 -5.21601563 13.244375 -5.953125 13.99609375 C-6.66855469 14.74117188 -7.38398438 15.48625 -8.12109375 16.25390625 C-9.88978433 18.09334445 -11.66718633 19.923423 -13.453125 21.74609375 C-14.21496094 21.33617187 -14.97679687 20.92625 -15.76171875 20.50390625 C-27.5553721 14.34941549 -38.46796764 11.3730788 -51.578125 15.37109375 C-62.71357352 19.49106565 -70.87506349 26.26099407 -76.328125 36.87109375 C-80.67416735 47.27569183 -80.42146608 58.28013925 -76.453125 68.74609375 C-71.82248867 78.92461705 -63.95457392 86.73951685 -53.453125 90.74609375 C-42.38559864 94.4977976 -31.02288285 93.65676386 -20.453125 88.74609375 C-17.153125 86.76609375 -13.853125 84.78609375 -10.453125 82.74609375 C-4.843125 88.35609375 0.766875 93.96609375 6.546875 99.74609375 C-4.09657459 112.1634516 -17.12670394 117.98442826 -33.453125 119.74609375 C-53.1410116 121.22425776 -70.30053111 113.94359288 -85.57421875 102.1015625 C-97.48293072 91.2379569 -104.54374729 74.50641432 -105.59228516 58.64038086 C-106.43241326 39.63817293 -102.23790802 22.87451456 -89.203125 8.43359375 C-65.77592646 -16.27043314 -27.72637711 -21.28638526 0 0 Z " fill="#FCFEFC" transform="translate(251.453125,463.25390625)"/>
<path d="M0 0 C6.6 0 13.2 0 20 0 C21.26878787 5.10334677 22.53393828 10.20733291 23.7902832 15.3137207 C24.21791194 17.04730276 24.64756267 18.78038744 25.0793457 20.51293945 C25.70287557 23.0164299 26.31889163 25.52167304 26.93359375 28.02734375 C27.12529648 28.79022202 27.31699921 29.55310028 27.51451111 30.33909607 C28.78285138 35.55078351 29.49714424 40.65860585 30 46 C30.66 46 31.32 46 32 46 C32.11408203 44.86232178 32.22816406 43.72464355 32.34570312 42.55249023 C32.92701577 37.9283258 34.11690358 33.61117564 35.46875 29.16015625 C35.82930481 27.94881264 35.82930481 27.94881264 36.19714355 26.71299744 C36.70182197 25.02219984 37.20955306 23.33231065 37.72021484 21.64331055 C38.50450873 19.04757773 39.27835741 16.44889631 40.05078125 13.84960938 C40.54366591 12.20294381 41.03713433 10.55645284 41.53125 8.91015625 C41.76356323 8.13108414 41.99587646 7.35201202 42.23522949 6.54933167 C43.88393556 1.11606444 43.88393556 1.11606444 45 0 C47.35313555 -0.07271741 49.70833668 -0.08370868 52.0625 -0.0625 C53.35285156 -0.05347656 54.64320313 -0.04445313 55.97265625 -0.03515625 C56.97167969 -0.02355469 57.97070312 -0.01195312 59 0 C60.20975485 4.01573552 61.41817616 8.03186945 62.62548828 12.04833984 C63.03432285 13.40781868 63.44348966 14.76719766 63.85302734 16.12646484 C66.64571422 25.39653848 69.36615122 34.68344111 72 44 C72.49197876 42.10725342 72.49197876 42.10725342 72.99389648 40.17626953 C74.20860673 35.50543453 75.4262428 30.83536648 76.64477539 26.16552734 C77.17227041 24.14229885 77.69896621 22.11886182 78.22485352 20.09521484 C78.97984351 17.19053138 79.73768203 14.28660416 80.49609375 11.3828125 C80.73154404 10.47443634 80.96699432 9.56606018 81.20957947 8.63015747 C81.42973221 7.78943695 81.64988495 6.94871643 81.87670898 6.08251953 C82.06990219 5.34083527 82.2630954 4.599151 82.46214294 3.83499146 C83 2 83 2 84 0 C89.94 0 95.88 0 102 0 C100.69621222 7.02535254 98.99798106 13.76093777 96.8828125 20.58203125 C96.58438446 21.55806808 96.28595642 22.53410492 95.97848511 23.53971863 C95.0318412 26.63205271 94.07855064 29.72228958 93.125 32.8125 C92.49304757 34.87291136 91.86153363 36.93345726 91.23046875 38.99414062 C90.0260447 42.92551561 88.81628074 46.85518397 87.60253906 50.78369141 C86.62803885 53.94235963 85.66752593 57.10406586 84.73339844 60.27490234 C84.38567383 61.44617676 84.03794922 62.61745117 83.6796875 63.82421875 C83.25405518 65.28541138 83.25405518 65.28541138 82.81982422 66.77612305 C82 69 82 69 80 71 C77.45464859 71.19849071 75.04283241 71.27851775 72.5 71.25 C71.81035156 71.25773438 71.12070312 71.26546875 70.41015625 71.2734375 C65.25333293 71.25333293 65.25333293 71.25333293 63 69 C62.30392456 67.12704468 62.30392456 67.12704468 61.67138672 64.82568359 C61.43128876 63.96494232 61.1911908 63.10420105 60.94381714 62.21737671 C60.69165436 61.28712677 60.43949158 60.35687683 60.1796875 59.3984375 C59.91616486 58.44683746 59.65264221 57.49523743 59.38113403 56.51480103 C58.53947409 53.46989251 57.70714496 50.42252108 56.875 47.375 C56.30660148 45.31233128 55.73759869 43.24982898 55.16796875 41.1875 C53.77162375 36.12691139 52.38293456 31.06426874 51 26 C50.83935562 26.54901474 50.67871124 27.09802948 50.51319885 27.66368103 C48.84625984 33.35823046 47.17482678 39.05144659 45.50073242 44.74389648 C44.87587049 46.87083351 44.25217005 48.9981121 43.62963867 51.12573242 C42.73658765 54.1771677 41.83941843 57.22736538 40.94140625 60.27734375 C40.6622084 61.23462875 40.38301056 62.19191376 40.09535217 63.1782074 C39.83515793 64.05904495 39.57496368 64.93988251 39.30688477 65.84741211 C39.07816177 66.62684677 38.84943878 67.40628143 38.61378479 68.20933533 C38 70 38 70 37 71 C34.13732433 71.07325168 31.299281 71.09238205 28.4375 71.0625 C27.63119141 71.05798828 26.82488281 71.05347656 25.99414062 71.04882812 C23.99606244 71.03700518 21.99802217 71.01906914 20 71 C17.24788173 64.01832182 15.10489804 56.90379151 12.98828125 49.70703125 C12.42864937 47.81074226 12.42864937 47.81074226 11.85771179 45.87614441 C11.07313156 43.21502064 10.29107391 40.55317006 9.51049805 37.89086914 C8.51177707 34.48621279 7.50405992 31.08429024 6.49413776 27.68294239 C5.52783042 24.42190316 4.57117519 21.15805164 3.61328125 17.89453125 C3.25083817 16.67675491 2.88839508 15.45897858 2.51496887 14.20429993 C2.18429916 13.0692955 1.85362946 11.93429108 1.51293945 10.76489258 C1.21998489 9.76976151 0.92703033 8.77463043 0.62519836 7.74934387 C0 5 0 5 0 0 Z " fill="#1A2544" transform="translate(837,499)"/>
<path d="M0 0 C-1.26170109 4.17708809 -2.82311609 7.67196937 -5.125 11.375 C-5.66382813 12.24898438 -6.20265625 13.12296875 -6.7578125 14.0234375 C-7.16773438 14.67570312 -7.57765625 15.32796875 -8 16 C-10.00692599 15.00101675 -12.00902984 13.99532635 -14 12.96484375 C-14.99 12.45630859 -14.99 12.45630859 -16 11.9375 C-16.99 11.42509766 -16.99 11.42509766 -18 10.90234375 C-25.15532773 7.67406112 -35.22325382 7.88160809 -42.76953125 9.6484375 C-45.04337168 10.58027403 -46.95957298 11.63291389 -49 13 C-49.70640625 13.46277344 -50.4128125 13.92554688 -51.140625 14.40234375 C-57.22734586 19.01247122 -60.28213422 24.61396878 -62 32 C-63.35171599 43.30232983 -62.96041074 54.61589489 -56.45703125 64.296875 C-51.92028946 69.98596997 -46.79849324 72.73383559 -40 75 C-28.09445148 75.91007326 -17.27445163 74.56736927 -7 68 C-5.77235126 69.90435268 -4.56838767 71.8239921 -3.375 73.75 C-2.70210938 74.81734375 -2.02921875 75.8846875 -1.3359375 76.984375 C0 80 0 80 -0.609375 82.234375 C-5.49877488 88.44226474 -13.33372011 91.8495467 -21 93 C-33.40973266 94.02873002 -46.63423522 94.74885283 -58 89 C-58.78761719 88.63777344 -59.57523437 88.27554688 -60.38671875 87.90234375 C-71.98674034 82.09248574 -80.6225047 72.41225807 -84.875 60.125 C-85.28500987 58.76003044 -85.66048209 57.38418842 -86 56 C-86.18175781 55.28714844 -86.36351562 54.57429687 -86.55078125 53.83984375 C-89.12848909 37.54424726 -86.69997567 22.52332375 -77 9 C-70.46251889 0.4536972 -58.73580182 -6.21819217 -48.3046875 -8.6015625 C-30.55728259 -10.74132054 -15.7381822 -8.62251472 0 0 Z " fill="#1A2544" transform="translate(444,478)"/>
<path d="M0 0 C6.76124511 5.4817516 9.52078699 12.14265302 11.54296875 20.45703125 C11.69669951 23.07827105 11.75906427 25.70644302 11.73046875 28.33203125 C11.72402344 29.64945313 11.71757813 30.966875 11.7109375 32.32421875 C11.54296875 35.45703125 11.54296875 35.45703125 10.54296875 36.45703125 C9.03878136 36.55015014 7.53025519 36.57449153 6.02319336 36.57055664 C4.58181252 36.57044334 4.58181252 36.57044334 3.11131287 36.57032776 C2.06653275 36.56516647 1.02175262 36.56000519 -0.0546875 36.5546875 C-1.11868271 36.55327255 -2.18267792 36.5518576 -3.27891541 36.55039978 C-6.69248208 36.54478189 -10.10598425 36.53222636 -13.51953125 36.51953125 C-15.82747301 36.51451856 -18.1354158 36.50995525 -20.44335938 36.50585938 C-26.11460551 36.49480665 -31.78581378 36.47805112 -37.45703125 36.45703125 C-36.9990246 37.73329782 -36.5357581 39.00767753 -36.0703125 40.28125 C-35.81290283 40.99112061 -35.55549316 41.70099121 -35.2902832 42.43237305 C-33.05493353 47.86388633 -29.7444434 50.24930477 -24.45703125 52.45703125 C-14.97854332 53.66963099 -7.37161009 52.8094169 1.1875 48.453125 C3.54296875 47.45703125 3.54296875 47.45703125 6.54296875 48.45703125 C7.52734375 50.34765625 7.52734375 50.34765625 8.29296875 52.70703125 C8.68742188 53.85945312 8.68742188 53.85945312 9.08984375 55.03515625 C9.63028375 57.92371485 9.55404265 59.69158253 8.54296875 62.45703125 C-1.94864279 69.47263412 -18.39932242 70.01525817 -30.33203125 67.70703125 C-39.10751862 65.36690128 -45.97495189 60.71290602 -51.70703125 53.70703125 C-57.64231678 42.68435812 -58.20596914 29.46571131 -55.8359375 17.2578125 C-52.39762804 7.52357638 -45.06721226 1.24832915 -36.16796875 -3.44921875 C-24.85881966 -8.01198783 -10.25163573 -6.43783166 0 0 Z " fill="#1A2443" transform="translate(819.45703125,502.54296875)"/>
<path d="M0 0 C0.77794922 -0.02900391 1.55589844 -0.05800781 2.35742188 -0.08789062 C9.10161228 -0.16101362 14.04980735 1.67798786 19.30078125 5.91796875 C26.05769653 13.99038966 26.75689173 22.28725989 26.640625 32.53125 C26.63875183 33.67033813 26.63687866 34.80942627 26.63494873 35.98303223 C26.62826186 38.37315835 26.61441508 40.76327417 26.59375 43.15332031 C26.56236013 46.82887836 26.55275139 50.50400817 26.546875 54.1796875 C26.53771372 56.50521362 26.52734075 58.83073535 26.515625 61.15625 C26.51137512 62.26029175 26.50712524 63.3643335 26.50274658 64.50183105 C26.49313904 65.5137854 26.48353149 66.52573975 26.47363281 67.56835938 C26.46680481 68.46276733 26.45997681 69.35717529 26.45294189 70.27868652 C26.3125 72.3125 26.3125 72.3125 25.3125 73.3125 C23.98206375 73.4108721 22.64656656 73.44328592 21.3125 73.4453125 C20.508125 73.44660156 19.70375 73.44789063 18.875 73.44921875 C18.029375 73.44535156 17.18375 73.44148437 16.3125 73.4375 C15.466875 73.44136719 14.62125 73.44523438 13.75 73.44921875 C12.945625 73.44792969 12.14125 73.44664062 11.3125 73.4453125 C10.57 73.44418457 9.8275 73.44305664 9.0625 73.44189453 C7.3125 73.3125 7.3125 73.3125 6.3125 72.3125 C6.20568872 70.84058016 6.16630123 69.3636847 6.15478516 67.88793945 C6.14452301 66.94638504 6.13426086 66.00483063 6.12368774 65.03474426 C6.11638641 64.00878647 6.10908508 62.98282867 6.1015625 61.92578125 C6.07348339 59.76887276 6.04481886 57.61197182 6.015625 55.45507812 C5.97441481 52.04272759 5.93754269 48.63051653 5.91113281 45.21801758 C5.88347991 41.93280547 5.83759335 38.64824248 5.7890625 35.36328125 C5.78580963 34.34744461 5.78255676 33.33160797 5.77920532 32.2849884 C5.68588248 26.89220472 5.36949289 22.95956495 2.3125 18.3125 C-0.56782416 15.96556921 -3.86340035 15.84847023 -7.5234375 15.91015625 C-10.87686129 16.53362674 -13.28418976 18.25434923 -16.0234375 20.21875 C-17.6875 21.3125 -17.6875 21.3125 -19.6875 21.3125 C-20.63568902 24.15706707 -20.82691731 25.98224612 -20.86108398 28.93579102 C-20.87457382 29.87008438 -20.88806366 30.80437775 -20.90196228 31.76698303 C-20.91240067 32.77329269 -20.92283905 33.77960236 -20.93359375 34.81640625 C-20.96651592 36.9394575 -20.99972783 39.06250427 -21.03320312 41.18554688 C-21.08073945 44.53895141 -21.12520215 47.89233571 -21.16430664 51.24584961 C-21.20387491 54.4778899 -21.25543872 57.70956496 -21.30859375 60.94140625 C-21.3170079 61.94974014 -21.32542206 62.95807404 -21.33409119 63.9969635 C-21.35073318 64.92810471 -21.36737518 65.85924591 -21.38452148 66.81860352 C-21.39482895 67.64006363 -21.40513641 68.46152374 -21.41575623 69.30787659 C-21.6875 71.3125 -21.6875 71.3125 -23.6875 73.3125 C-26.56092061 73.51106972 -29.31611988 73.59078946 -32.1875 73.5625 C-33.36505859 73.57410156 -33.36505859 73.57410156 -34.56640625 73.5859375 C-40.43419213 73.56580787 -40.43419213 73.56580787 -42.6875 71.3125 C-42.92800903 68.45248413 -42.92800903 68.45248413 -42.91455078 64.75146484 C-42.91484283 64.07817642 -42.91513489 63.404888 -42.91543579 62.7111969 C-42.91404047 60.48181346 -42.89847016 58.25276268 -42.8828125 56.0234375 C-42.87908308 54.47930077 -42.87623577 52.93516167 -42.87423706 51.39102173 C-42.86659499 47.32374557 -42.84694168 43.25661189 -42.8248291 39.18939209 C-42.80438296 35.0403435 -42.79523799 30.89127193 -42.78515625 26.7421875 C-42.76369623 18.59888561 -42.72850951 10.45572693 -42.6875 2.3125 C-36.0875 2.3125 -29.4875 2.3125 -22.6875 2.3125 C-22.3575 3.9625 -22.0275 5.6125 -21.6875 7.3125 C-20.65689453 6.68021484 -20.65689453 6.68021484 -19.60546875 6.03515625 C-18.70441406 5.48730469 -17.80335938 4.93945312 -16.875 4.375 C-15.98167969 3.82972656 -15.08835937 3.28445313 -14.16796875 2.72265625 C-9.51754003 0.07886922 -5.21666737 0.06325789 0 0 Z " fill="#1C2747" transform="translate(576.6875,496.6875)"/>
<path d="M0 0 C1.40958984 -0.00193359 1.40958984 -0.00193359 2.84765625 -0.00390625 C3.83636719 -0.00003906 4.82507813 0.00382812 5.84375 0.0078125 C7.32681641 0.00201172 7.32681641 0.00201172 8.83984375 -0.00390625 C9.77957031 -0.00261719 10.71929687 -0.00132812 11.6875 0 C12.55568359 0.00112793 13.42386719 0.00225586 14.31835938 0.00341797 C16.34375 0.1328125 16.34375 0.1328125 17.34375 1.1328125 C17.44978305 4.28821235 17.49052393 7.42184623 17.48901367 10.57788086 C17.49237228 11.5696785 17.4957309 12.56147614 17.49919128 13.58332825 C17.50873286 16.87978346 17.51064598 20.17618806 17.51171875 23.47265625 C17.51492905 25.7533012 17.51829294 28.03394595 17.52180481 30.31459045 C17.52780408 35.10222857 17.52964389 39.88984862 17.52905273 44.67749023 C17.52895105 50.82601313 17.54260585 56.97442069 17.55982494 63.12291622 C17.57091854 67.83509356 17.57297276 72.54724278 17.57244301 77.25943184 C17.57362702 79.52693644 17.57807218 81.79444169 17.58577538 84.06193352 C17.59552235 87.22748879 17.59271826 90.39279065 17.58666992 93.55834961 C17.59228943 94.50336334 17.59790894 95.44837708 17.60369873 96.42202759 C17.59950424 97.28157547 17.59530975 98.14112335 17.59098816 99.02671814 C17.59153293 99.77575881 17.59207769 100.52479948 17.59263897 101.29653835 C17.34375 103.1328125 17.34375 103.1328125 15.34375 105.1328125 C13.40429688 105.37573242 13.40429688 105.37573242 11.0625 105.36328125 C9.79986328 105.36038086 9.79986328 105.36038086 8.51171875 105.35742188 C7.63128906 105.34517578 6.75085938 105.33292969 5.84375 105.3203125 C4.96332031 105.31966797 4.08289063 105.31902344 3.17578125 105.31835938 C-3.37544885 105.27321307 -3.37544885 105.27321307 -5.65625 104.1328125 C-5.6793707 90.72055457 -5.69716369 77.30830133 -5.70806217 63.89602757 C-5.7132916 57.66887778 -5.72039033 51.44174158 -5.73168945 45.21459961 C-5.74251621 39.21054385 -5.74852638 33.20650121 -5.75112724 27.20243645 C-5.75298188 24.9061964 -5.75660321 22.60995711 -5.76198006 20.31372261 C-5.76918768 17.10960436 -5.77024106 13.905541 -5.76977539 10.70141602 C-5.77337067 9.74188522 -5.77696594 8.78235443 -5.78067017 7.79374695 C-5.7792955 6.92571442 -5.77792084 6.05768188 -5.77650452 5.16334534 C-5.77742631 4.40470971 -5.7783481 3.64607409 -5.77929783 2.8644495 C-5.52153602 -0.76300076 -3.06112401 0.00397696 0 0 Z " fill="#202A48" transform="translate(462.65625,464.8671875)"/>
<path d="M0 0 C6.27 0 12.54 0 19 0 C20.95739883 5.72909684 22.91466226 11.45823956 24.87158203 17.1875 C25.5368672 19.13511828 26.2022309 21.08270973 26.86767578 23.03027344 C27.82605479 25.8352153 28.78414811 28.64025462 29.7421875 31.4453125 C30.03809784 32.31116974 30.33400818 33.17702698 30.6388855 34.06912231 C32.10890138 38.37411222 33.56882074 42.68189262 35 47 C35.51385254 45.45058716 35.51385254 45.45058716 36.03808594 43.86987305 C37.32621888 39.98718563 38.61643021 36.10519137 39.90722656 32.22338867 C40.46246917 30.55267461 41.0171701 28.88178043 41.57128906 27.21069336 C44.59483154 18.09367582 47.65445106 9.00537323 51 0 C56.94 0 62.88 0 69 0 C68.21421497 4.71471017 67.29016459 8.33690726 65.6640625 12.75 C65.42874817 13.393358 65.19343384 14.036716 64.95098877 14.6995697 C64.18076668 16.80163024 63.40309975 18.90084406 62.625 21 C62.08697579 22.46151297 61.5493837 23.92318507 61.01220703 25.38500977 C60.18198305 27.64331702 59.35108585 29.90136315 58.51791382 32.15858459 C56.59943918 37.35706892 54.70720186 42.56450453 52.828125 47.77734375 C52.08310561 49.83686048 51.33746445 51.89615067 50.5914917 53.95532227 C50.11517615 55.27305152 49.64059673 56.59140966 49.16778564 57.91040039 C48.51027673 59.74291882 47.84516957 61.5727057 47.1796875 63.40234375 C46.80569824 64.43866943 46.43170898 65.47499512 46.04638672 66.54272461 C45 69 45 69 43 71 C40.13837978 71.27882453 37.42629639 71.41621662 34.5625 71.4375 C33.78583984 71.47037109 33.00917969 71.50324219 32.20898438 71.53710938 C29.94140625 71.55859375 29.94140625 71.55859375 26 71 C22.54307181 66.65366795 21.03527359 60.97163763 19.19921875 55.79296875 C18.84036087 54.79477615 18.48150299 53.79658356 18.11177063 52.7681427 C16.96535035 49.5763608 15.82615697 46.38205869 14.6875 43.1875 C13.56123935 40.04147051 12.43346161 36.89599 11.30496216 33.75076294 C10.57159842 31.70615706 9.83938796 29.66113714 9.10836792 27.61569214 C6.72135381 20.95114001 4.27410489 14.31260047 1.69108582 7.72123718 C0.63223644 4.96792646 0 2.984278 0 0 Z " fill="#1A2443" transform="translate(650,499)"/>
<path d="M0 0 C6.93 0 13.86 0 21 0 C21 23.1 21 46.2 21 70 C17.71646451 71.64176774 14.10480362 71.18454039 10.5 71.1875 C9.71496094 71.19974609 8.92992187 71.21199219 8.12109375 71.22460938 C6.07936274 71.22986254 4.03807749 71.1222018 2 71 C0 69 0 69 -0.24050903 66.13998413 C-0.23606781 64.91864777 -0.23162659 63.6973114 -0.22705078 62.43896484 C-0.22734283 61.76567642 -0.22763489 61.092388 -0.22793579 60.3986969 C-0.22654047 58.16931346 -0.21097016 55.94026268 -0.1953125 53.7109375 C-0.19158308 52.16680077 -0.18873577 50.62266167 -0.18673706 49.07852173 C-0.17909499 45.01124557 -0.15944168 40.94411189 -0.1373291 36.87689209 C-0.11688296 32.7278435 -0.10773799 28.57877193 -0.09765625 24.4296875 C-0.07619623 16.28638561 -0.04100951 8.14322693 0 0 Z " fill="#1D2747" transform="translate(729,499)"/>
<path d="M0 0 C0.804375 -0.00128906 1.60875 -0.00257813 2.4375 -0.00390625 C3.283125 -0.00003906 4.12875 0.00382812 5 0.0078125 C6.2684375 0.00201172 6.2684375 0.00201172 7.5625 -0.00390625 C8.366875 -0.00261719 9.17125 -0.00132812 10 0 C10.7425 0.00112793 11.485 0.00225586 12.25 0.00341797 C14 0.1328125 14 0.1328125 15 1.1328125 C15.09429342 3.31086969 15.11742538 5.4920253 15.11352539 7.67211914 C15.11367142 8.35501511 15.11381744 9.03791107 15.1139679 9.74150085 C15.11326876 12.00868864 15.1054764 14.27579524 15.09765625 16.54296875 C15.09579207 18.11095637 15.09436817 19.67894457 15.09336853 21.24693298 C15.08954334 25.38157753 15.07971306 29.51618716 15.06866455 33.65081787 C15.05845044 37.86681648 15.05387091 42.08282072 15.04882812 46.29882812 C15.03809079 54.57683897 15.02101436 62.8548214 15 71.1328125 C11.70322112 72.78120194 8.05683956 72.27553988 4.4375 72.2578125 C3.64408203 72.26167969 2.85066406 72.26554688 2.03320312 72.26953125 C-3.87336933 72.25944317 -3.87336933 72.25944317 -5 71.1328125 C-5.09956278 68.9601857 -5.12799719 66.78428144 -5.12939453 64.609375 C-5.13114685 63.92808533 -5.13289917 63.24679565 -5.13470459 62.54486084 C-5.13912242 60.28248583 -5.13618538 58.02018837 -5.1328125 55.7578125 C-5.13348556 54.1922199 -5.1344556 52.6266274 -5.13571167 51.06103516 C-5.13718855 47.77570605 -5.13503441 44.49040408 -5.13037109 41.20507812 C-5.1246738 36.98460734 -5.12795286 32.76420014 -5.13394356 28.54373169 C-5.13754944 25.30964678 -5.13641046 22.07557705 -5.13381577 18.8414917 C-5.13314657 17.28489169 -5.13397466 15.72829032 -5.13629532 14.17169189 C-5.1388223 11.99984054 -5.13498065 9.82809354 -5.12939453 7.65625 C-5.12859894 6.41794434 -5.12780334 5.17963867 -5.12698364 3.90380859 C-4.93237233 -0.34293673 -3.85614794 0.00585786 0 0 Z " fill="#192444" transform="translate(502,497.8671875)"/>
<path d="M0 0 C6.6 0 13.2 0 20 0 C20.0225528 9.10959489 20.04091611 18.21917137 20.05181217 27.3287878 C20.05704056 31.55831371 20.0641374 35.7878196 20.07543945 40.01733398 C20.08626991 44.09568543 20.09227717 48.17401757 20.09487724 52.25238228 C20.09673121 53.81177639 20.10035127 55.3711694 20.10573006 56.93055534 C20.11294262 59.10729162 20.11399085 61.28394714 20.11352539 63.46069336 C20.115746 64.70201523 20.11796661 65.9433371 20.12025452 67.22227478 C20 70 20 70 19 71 C16.17583618 71.12663091 13.38705207 71.18520548 10.5625 71.1875 C9.77294922 71.19974609 8.98339844 71.21199219 8.16992188 71.22460938 C6.11192565 71.22987279 4.05437991 71.12206285 2 71 C0 69 0 69 -0.24050903 66.13998413 C-0.23606781 64.91864777 -0.23162659 63.6973114 -0.22705078 62.43896484 C-0.22734283 61.76567642 -0.22763489 61.092388 -0.22793579 60.3986969 C-0.22654047 58.16931346 -0.21097016 55.94026268 -0.1953125 53.7109375 C-0.19158308 52.16680077 -0.18873577 50.62266167 -0.18673706 49.07852173 C-0.17909499 45.01124557 -0.15944168 40.94411189 -0.1373291 36.87689209 C-0.11688296 32.7278435 -0.10773799 28.57877193 -0.09765625 24.4296875 C-0.07619623 16.28638561 -0.04100951 8.14322693 0 0 Z " fill="#1D2645" transform="translate(619,499)"/>
<path d="M0 0 C4.2616062 1.30107538 7.07799812 3.68523659 9.4375 7.4375 C11 11 11 11 11 16 C0.44 16 -10.12 16 -21 16 C-18.12430303 3.05936361 -12.95905645 -1.4318398 0 0 Z " fill="#F4FBF9" transform="translate(803,511)"/>
<path d="M0 0 C3.62342508 1.6470114 6.16816086 3.4327343 8 7 C8.5104392 12.35961156 8.4594433 15.64366399 5 20 C0.74497978 22.83668015 -3.01289835 22.99742033 -8 22 C-11.48448598 19.74774875 -13.47992171 16.97781599 -14.53515625 12.96484375 C-14.82759321 9.07318266 -13.9956362 6.52048786 -11.625 3.5625 C-7.6742692 -0.29416578 -5.48740163 -0.37202723 0 0 Z " fill="#1A2340" transform="translate(742,466)"/>
<path d="M0 0 C3.62342508 1.6470114 6.16816086 3.4327343 8 7 C8.50541498 12.30685731 8.51553035 15.73114172 5 20 C1.96754689 22.35857464 -1.26065814 22.35933916 -5.03515625 22.25390625 C-8.72593739 21.77696634 -11.06020299 20.20831044 -13.3125 17.3125 C-14.35150926 13.81765067 -14.69164143 10.56777412 -14 7 C-10.45141607 0.86583076 -6.89313978 -0.46733151 0 0 Z " fill="#192240" transform="translate(510,466)"/>
<path d="M0 0 C2.92837797 2.45027545 4.56680768 4.19920878 5.47265625 7.96484375 C5.76870317 11.91972697 5.12212999 14.33838332 2.625 17.4375 C-1.19100262 21.16264542 -3.57094097 21.392659 -8.73828125 21.359375 C-12.32520929 20.78943134 -13.86838894 18.79773951 -16 16 C-17.61540873 12.76918255 -17.5896275 9.49240902 -17 6 C-13.0669965 -1.09155458 -7.3553943 -2.06105619 0 0 Z " fill="#192240" transform="translate(635,467)"/>
<path d="M0 0 C2 2 2 2 2.24723816 4.207901 C2.24581314 5.12421799 2.24438812 6.04053497 2.24291992 6.98461914 C2.24599655 8.02231949 2.24907318 9.06001984 2.25224304 10.12916565 C2.24505753 11.25314255 2.23787201 12.37711945 2.23046875 13.53515625 C2.22978142 15.2586454 2.22978142 15.2586454 2.2290802 17.01695251 C2.22605526 19.44889354 2.21816179 21.88083259 2.20581055 24.31274414 C2.18755927 28.0503622 2.18530077 31.78773267 2.18554688 35.52539062 C2.18063172 37.88281466 2.17480341 40.240237 2.16796875 42.59765625 C2.16685593 43.72365738 2.1657431 44.84965851 2.16459656 46.00978088 C2.15821671 47.04432907 2.15183685 48.07887726 2.14526367 49.14477539 C2.13954597 50.51805748 2.13954597 50.51805748 2.13371277 51.91908264 C2 54 2 54 1 55 C-0.33043625 55.0983721 -1.66593344 55.13078592 -3 55.1328125 C-3.804375 55.13410156 -4.60875 55.13539063 -5.4375 55.13671875 C-6.283125 55.13285156 -7.12875 55.12898437 -8 55.125 C-8.845625 55.12886719 -9.69125 55.13273438 -10.5625 55.13671875 C-11.366875 55.13542969 -12.17125 55.13414062 -13 55.1328125 C-13.7425 55.13168457 -14.485 55.13055664 -15.25 55.12939453 C-17 55 -17 55 -18 54 C-18.12272849 52.40486107 -18.17781043 50.80445068 -18.20532227 49.20483398 C-18.22526749 48.18385117 -18.24521271 47.16286835 -18.26576233 46.11094666 C-18.28247482 45.0005452 -18.29918732 43.89014374 -18.31640625 42.74609375 C-18.3475779 41.05021873 -18.3475779 41.05021873 -18.37937927 39.32008362 C-18.44499797 35.69262015 -18.50381677 32.06508167 -18.5625 28.4375 C-18.60567351 25.98501814 -18.6492874 23.532544 -18.69335938 21.08007812 C-18.80069184 15.05346573 -18.9024349 9.02677799 -19 3 C-16.72604887 5.27395113 -16.06608889 6.86285344 -15.87974548 10.06913757 C-15.88196609 10.8618959 -15.88418671 11.65465424 -15.88647461 12.47143555 C-15.88655014 13.37214279 -15.88662567 14.27285004 -15.88670349 15.20085144 C-15.89186478 16.16968765 -15.89702606 17.13852386 -15.90234375 18.13671875 C-15.9037587 19.13129593 -15.90517365 20.12587311 -15.90663147 21.15058899 C-15.91223239 24.32958982 -15.92478504 27.50852043 -15.9375 30.6875 C-15.94251488 32.84179586 -15.94707781 34.99609282 -15.95117188 37.15039062 C-15.96220213 42.43362084 -15.97946738 47.71679851 -16 53 C-10.72 53 -5.44 53 0 53 C0 35.51 0 18.02 0 0 Z " fill="#182039" transform="translate(601,515)"/>
<path d="M0 0 C0.33 0 0.66 0 1 0 C1 10.23 1 20.46 1 31 C6.28 31.33 11.56 31.66 17 32 C17 32.66 17 33.32 17 34 C11.39 34 5.78 34 0 34 C-1.48700668 31.02598664 -1.00619932 28.05181074 -0.87890625 24.8046875 C-0.85529526 24.09724396 -0.83168427 23.38980042 -0.80735779 22.66091919 C-0.73071166 20.39874245 -0.64669188 18.13690727 -0.5625 15.875 C-0.50928023 14.3424647 -0.45653982 12.80991266 -0.40429688 11.27734375 C-0.27509533 7.51801239 -0.13927963 3.75897092 0 0 Z " fill="#29324C" transform="translate(731,536)"/>
<path d="M0 0 C6.27 0 12.54 0 19 0 C18.67 0.99 18.34 1.98 18 3 C12.39 3 6.78 3 1 3 C0.67 2.01 0.34 1.02 0 0 Z " fill="#2F374B" transform="translate(856,567)"/>
<path d="M0 0 C0 0.66 0 1.32 0 2 C1.65 2 3.3 2 5 2 C5 2.33 5 2.66 5 3 C3.14375 3.1546875 3.14375 3.1546875 1.25 3.3125 C-2.2792866 3.73801682 -4.37160966 4.48112592 -7 7 C-6.39816251 4.97954558 -5.72693904 2.97888961 -5 1 C-3 0 -3 0 0 0 Z " fill="#242C4B" transform="translate(738,466)"/>
<path d="M0 0 C0.33 0.99 0.66 1.98 1 3 C-1.97 5.475 -1.97 5.475 -5 8 C-4.64950425 4.75791433 -4.43778819 3.38472296 -1.9375 1.1875 C-1.298125 0.795625 -0.65875 0.40375 0 0 Z " fill="#1CAA5E" transform="translate(124,448)"/>
<path d="M0 0 C-2.69007598 2.69007598 -5.36855815 3.02729236 -9 4 C-9.99 4.495 -9.99 4.495 -11 5 C-11.66 4.34 -12.32 3.68 -13 3 C-4.57142857 -0.42857143 -4.57142857 -0.42857143 0 0 Z " fill="#1AA554" transform="translate(189,409)"/>
<path d="M0 0 C0.99 0.99 1.98 1.98 3 3 C0.97646402 4.01176799 -0.80363152 4.48320742 -3 5 C-4.11375 5.2784375 -4.11375 5.2784375 -5.25 5.5625 C-5.8275 5.706875 -6.405 5.85125 -7 6 C-7 5.34 -7 4.68 -7 4 C-4.69 2.68 -2.38 1.36 0 0 Z " fill="#1E222F" transform="translate(436,546)"/>
<path d="M0 0 C1.98 0.99 1.98 0.99 4 2 C3.01 2.495 3.01 2.495 2 3 C2.33 5.31 2.66 7.62 3 10 C0.70366176 6.55549263 0.45983515 4.06187717 0 0 Z " fill="#0D1329" transform="translate(845,527)"/>
</svg>
